<svg xmlns="http://www.w3.org/2000/svg" viewBox="0 0 165 36.5" width="165" height="36.5" role="img" aria-label="TapeForge"><path fill="#2F343C" d="M 154.93051,6.8408552 c 2.35361,0 4.40311,0.7801295 6.14848,2.3403884 1.7586,1.5602594 2.77673,3.5039714 3.0544,5.8311374 v 3.312244 h -12.07878 c 0.74046,0.872687 1.69909,1.309031 2.8759,1.309031 h 8.35003 c -0.74046,1.599927 -1.87099,2.86929 -3.39158,3.808089 -1.50737,0.9388 -3.16018,1.4082 -4.95845,1.4082 -2.53873,0 -4.70722,-0.866076 -6.50548,-2.598228 -1.79827,-1.732151 -2.6974,-3.860979 -2.6974,-6.386483 0,-2.538727 0.89913,-4.674166 2.6974,-6.4063172 1.79826,-1.7453744 3.96675,-2.6180616 6.50548,-2.6180616 z m 3.70892,8.1715258 c -0.21156,-0.859465 -0.66113,-1.560259 -1.3487,-2.102383 -0.67435,-0.555347 -1.46109,-0.83302 -2.36022,-0.83302 -0.88591,0 -1.67926,0.277673 -2.38005,0.83302 -0.68757,0.542124 -1.14375,1.242918 -1.36854,2.102383 z M 139.15746,15.865234 c 0,-1.057803 -0.39006,-1.950324 -1.17019,-2.677563 -0.76691,-0.740462 -1.67926,-1.110693 -2.73707,-1.110693 -1.07102,0 -1.9966,0.36362 -2.77673,1.090859 -0.78013,0.714017 -1.17019,1.613149 -1.17019,2.697397 0,1.071025 0.39006,1.970158 1.17019,2.697397 0.78013,0.714017 1.70571,1.071025 2.77673,1.071025 1.26937,0 2.31395,-0.509068 3.13374,-1.527203 V 24.3541 c -0.99169,0.330563 -2.03627,0.495845 -3.13374,0.495845 -2.60484,0 -4.83284,-0.872687 -6.68399,-2.618061 -1.83793,-1.758597 -2.7569,-3.880814 -2.7569,-6.36665 0,-2.565171 0.94541,-4.720444 2.83624,-6.4658186 1.83793,-1.7057068 4.03948,-2.5585602 6.60465,-2.5585602 2.57839,0 4.78656,0.8528534 6.62449,2.5585602 1.86438,1.7321516 2.79657,3.8874246 2.79657,6.4658186 v 10.789587 c 0,2.538726 -0.93219,4.674165 -2.79657,6.406317 -1.86437,1.745375 -4.07254,2.618062 -6.62449,2.618062 -2.56517,0 -4.76672,-0.852854 -6.60465,-2.558561 -1.89083,-1.758597 -2.83624,-3.913869 -2.83624,-6.465818 0.005,-1.475747 0.21272,-2.855741 1.1677,-4.603224 1.29524,1.543244 2.96232,2.526977 4.58182,3.104181 -0.40682,1.393569 -0.21382,2.355726 -0.008,2.875433 0.19221,0.484372 0.49154,0.918675 0.90237,1.301173 0.78013,0.714017 1.71231,1.071025 2.79656,1.071025 1.08425,0 2.00321,-0.357008 2.7569,-1.071025 0.76691,-0.714017 1.15036,-1.606538 1.15036,-2.677563 z M 115.44444,6.8408552 c 2.55195,0 4.7469,0.8859097 6.58483,2.6577292 1.83793,1.7585966 2.75689,3.9138696 2.75689,6.4658186 h -5.45429 c 0,-1.057803 -0.38345,-1.956935 -1.15036,-2.697397 -0.75369,-0.740462 -1.66604,-1.110693 -2.73707,-1.110693 -1.03135,0 -1.9371,0.376842 -2.71723,1.130527 -0.78013,0.753685 -1.17019,1.646206 -1.17019,2.677563 v 8.885542 h -5.41463 v -8.885542 c 0,-2.565171 0.90574,-4.727055 2.71723,-6.4856524 1.81149,-1.7585969 4.00643,-2.6378954 6.58482,-2.6378954 z M 95.92277,6.8210214 c 2.578408,0 4.78659,0.8528534 6.62452,2.5585602 1.86438,1.7321514 2.79657,3.8874244 2.79657,6.4658184 0,2.512281 -0.94541,4.64772 -2.83624,6.406317 -1.85115,1.718929 -4.046102,2.578394 -6.58485,2.578394 -2.604856,0 -4.832872,-0.872687 -6.684034,-2.618061 -1.837942,-1.758597 -2.756907,-3.880814 -2.756907,-6.36665 0,-2.565171 0.945412,-4.720444 2.836247,-6.4658184 1.837942,-1.7057068 4.039508,-2.5585602 6.604694,-2.5585602 z m 0,5.2559566 c -1.044586,0 -1.963552,0.370231 -2.756908,1.110693 -0.780136,0.727239 -1.170208,1.613149 -1.170208,2.657729 0,1.04458 0.390072,1.93049 1.170208,2.657729 0.780136,0.727239 1.699102,1.090859 2.756908,1.090859 1.057818,0 1.976784,-0.36362 2.75692,-1.090859 0.780136,-0.727239 1.170208,-1.613149 1.170208,-2.657729 0,-1.071025 -0.390072,-1.963546 -1.170208,-2.677563 -0.780136,-0.727239 -1.699102,-1.090859 -2.75692,-1.090859 z M 84.440282,6.0475033 c -1.084248,0 -2.016437,0.3636196 -2.796566,1.0908589 -0.766907,0.7272393 -1.15036,1.6329829 -1.15036,2.7172306 v 5.1567882 h 5.11564 l -0.0058,3.312244 h -5.109794 v 6.52532 h -5.494008 v -6.52532 h -2.123253 v -3.312244 h 2.123253 V 9.835759 c 0,-2.5519489 0.9388,-4.7072217 2.816399,-6.4658186 1.851155,-1.7057068 4.059318,-2.55856016 6.624489,-2.55856016 z M 62.743405,6.8408552 c 2.353611,0 4.403103,0.7801295 6.148478,2.3403884 1.758597,1.5602594 2.776732,3.5039714 3.054405,5.8311374 v 3.312244 H 59.867504 c 0.740462,0.872687 1.699096,1.309031 2.875901,1.309031 h 8.350029 c -0.740461,1.599927 -1.870988,2.86929 -3.391579,3.808089 -1.507369,0.9388 -3.160185,1.4082 -4.95845,1.4082 -2.538727,0 -4.707222,-0.866076 -6.505486,-2.598228 -1.798265,-1.732151 -2.697397,-3.860979 -2.697397,-6.386483 0,-2.538727 0.899132,-4.674166 2.697397,-6.4063172 1.798264,-1.7453744 3.966759,-2.6180616 6.505486,-2.6180616 z m 3.70892,8.1715258 c -0.21156,-0.859465 -0.661126,-1.560259 -1.348698,-2.102383 -0.674349,-0.555347 -1.46109,-0.83302 -2.360222,-0.83302 -0.88591,0 -1.679262,0.277673 -2.380056,0.83302 -0.687572,0.542124 -1.143749,1.242918 -1.368532,2.102383 z M 43.28129,12.057144 c -1.097471,0 -2.023048,0.370231 -2.776732,1.110693 -0.753685,0.740462 -1.130527,1.632983 -1.130527,2.677563 V 30.819919 H 33.860235 V 15.805733 c 0,-2.538727 0.932189,-4.674166 2.796566,-6.4063176 1.877599,-1.7453744 4.085762,-2.6180616 6.624489,-2.6180616 2.538726,0 4.740278,0.8594647 6.604655,2.578394 1.890822,1.7585972 2.836233,3.9072582 2.836233,6.4459852 0,2.538726 -0.9388,4.680776 -2.816399,6.426151 -1.864377,1.732151 -4.07254,2.598227 -6.624489,2.598227 -1.031358,0 -2.069327,-0.178504 -3.113907,-0.535512 v -6.247647 c 0.766907,1.018135 1.804876,1.527202 3.113907,1.527202 1.071025,0 1.996602,-0.36362 2.776732,-1.090859 0.780129,-0.727239 1.170194,-1.619759 1.170194,-2.677562 0,-1.071025 -0.390065,-1.963546 -1.170194,-2.677563 -0.78013,-0.714017 -1.705707,-1.071026 -2.776732,-1.071026 z M 27.448324,15.805733 c 0,-1.071025 -0.390065,-1.963546 -1.170194,-2.677563 -0.780129,-0.714017 -1.705707,-1.071026 -2.776732,-1.071026 -1.04458,0 -1.956935,0.36362 -2.737064,1.090859 -0.780129,0.714017 -1.170194,1.599927 -1.170194,2.65773 0,1.04458 0.383453,1.937101 1.15036,2.677562 0.780129,0.727239 1.699095,1.090859 2.756898,1.090859 1.322253,0 2.380056,-0.509067 3.173408,-1.527202 v 6.247647 c -1.071025,0.357008 -2.128828,0.535512 -3.173408,0.535512 -2.551949,0 -4.746889,-0.866076 -6.584821,-2.598227 -1.890822,-1.745375 -2.836233,-3.887425 -2.836233,-6.426151 0,-2.538727 0.932188,-4.674166 2.796565,-6.4063176 1.8776,-1.7453744 4.085763,-2.6180616 6.624489,-2.6180616 2.538727,0 4.740278,0.8594647 6.604655,2.578394 1.890823,1.7585972 2.836234,3.9072582 2.836234,6.4459852 v 9.044212 h -5.493963 z M 8.6338325,15.8454 c 0,1.057803 0.3900647,1.950324 1.1701941,2.677563 0.7933524,0.714017 1.7189294,1.071025 2.7767324,1.071025 v 5.255957 c -2.565172,0 -4.7733348,-0.859465 -6.6244894,-2.578394 C 4.0786699,20.526177 3.13987,18.384127 3.13987,15.8454 V 10.172934 H 0.95815212 V 6.8408552 H 3.13987 V 0.81138024 H 8.6338325 V 6.8408552 H 13.889789 V 10.172934 H 8.6338325 Z"></path></svg>