<?xml version="1.0"?>


<svg xmlns:dc="http://purl.org/dc/elements/1.1/" xmlns:cc="http://creativecommons.org/ns#" xmlns:rdf="http://www.w3.org/1999/02/22-rdf-syntax-ns#" xmlns:svg="http://www.w3.org/2000/svg" xmlns="http://www.w3.org/2000/svg" xmlns:sodipodi="http://sodipodi.sourceforge.net/DTD/sodipodi-0.dtd" xmlns:inkscape="http://www.inkscape.org/namespaces/inkscape" width="171.28" height="43.16" viewBox="67.04 97.37 171.28 43.16" version="1.1" id="svg8">
  <defs id="defs2"></defs>
  <namedview id="base" pagecolor="#ffffff" bordercolor="#666666" borderopacity="1.0" showgrid="false" showguides="true"></namedview>
  <metadata id="metadata5">
    <RDF>
      <Work>
        <format>image/svg+xml</format>
        <type></type>
        <title></title>
      </Work>
    </RDF>
  </metadata>
  <g id="layer1" transform="translate(0,-87)">
    <g id="g832" transform="matrix(0.93890672,0,0,0.93890672,2.9413176,11.884168)">
      <g id="layer1-14" transform="matrix(0.24087758,0,0,0.24087758,-12.122061,-103.28638)">
        <g id="g850" transform="matrix(1.1401604,0,0,1.1401604,-116.86894,-172.96644)">
          <g id="g843">
            <g id="g835" transform="matrix(0.95809125,0,0,0.95809125,10.485428,39.973735)">
              <g transform="matrix(0.56644527,0,0,0.56644527,549.15573,761.62901)" id="layer1-1" style="fill:#009f6d;fill-opacity:1">
                <g transform="translate(-351.94073,-63.581942)" id="g4147" style="fill:#009f6d;fill-opacity:1">
                  <path id="path4151" transform="translate(-0.35714306,1.4285715)" d="m 746.32812,292.73242 c -3.87188,3.45685 -3.55514,-1.01812 -9.85667,2.41121 -38.69142,39.49791 -187.10226,197.06155 -279.67543,280.3145 -8.27183,9.59746 -8.24357,10.99936 18.13367,41.3114 86.66895,103.19887 150.78256,173.15574 230.52539,260.72852 6.92396,4.89705 5.60074,-1.42347 10.72546,2.36778 2.12752,1.09551 31.06849,-26.85174 48.27164,-41.55574 42.46201,-43.60131 67.36529,-63.92753 105.77048,-102.02493 18.33019,-19.53667 47.0259,-46.72687 39.33948,-39.20455 41.69453,-42.79559 58.38829,-59.34089 107.55676,-112.5069 -38.89514,-41.85974 -86.54451,-87.88306 -125.14309,-131.91323 -9.14557,-8.72509 -8.53447,-6.67527 -5.89272,-10.30354 5.97452,-6.42116 5.12277,-5.01669 7.27391,-7.69235 -6.69389,-7.2437 -16.29633,-18.8853 -23.34296,-25.51076 -7.15282,5.84846 -6.33199,6.69418 -9.58774,8.8715 -53.89976,-57.1354 -65.99155,-71.84856 -114.09818,-125.29291 z m -3.85946,36.84491 c 28.97352,36.6485 57.66797,63.00811 85.382,93.81737 16.32577,17.44139 14.80084,13.23133 13.1004,17.16901 -16.10651,22.17037 -31.89373,40.58416 -43.47811,53.73998 -14.98065,17.10946 -125.67397,141.37943 -149.49802,159.04584 -9.48347,2.69913 -2.45637,-10.35115 3.44265,-19.61553 11.82538,-18.89297 36.16748,-63.21891 48.02297,-88.3123 31.42293,-69.69435 24.78599,-85.7419 31.18004,-93.17376 -2.15724,-15.42284 -48.4927,-35.98686 -56.89403,-29.61903 10.08938,21.51753 5.53414,53.84861 -1.01562,78.7207 -5.25052,23.31705 -20.296,47.13318 -29.89844,64.24609 -6.76882,13.58225 -19.48315,32.45534 -23.3125,41.83008 -11.04886,19.96439 -26.97801,41.69787 -25.50195,64.93555 5.52857,29.82644 36.72729,41.76918 61.22563,17.13856 30.69083,-32.82996 48.1324,-52.45122 79.93959,-90.114 49.65752,-56.90842 71.01803,-81.66184 83.38583,-95.09606 -34.56299,58.4675 -49.9996,108.25169 -32.11387,159.51067 25.51949,46.37984 82.89618,12.56316 117.85888,-19.00958 11.65957,-9.79721 -14.38924,0.0892 -19.77316,3.91786 -66.8861,31.07278 -72.52646,7.01693 -76.81175,-13.58652 -10.06864,-48.40949 22.2743,-110.60841 61.6659,-168.55587 32.13584,34.09928 13.02418,13.5116 36.38601,38.77456 17.25661,19.17937 54.07242,54.13926 71.43061,74.39541 6.7213,5.91934 0.17052,6.8454 -3.61675,13.02627 -72.52996,76.46474 -127.22729,126.98621 -214.41891,211.44289 -12.58361,11.7881 -29.04336,27.8478 -42.8936,40.71611 -30.1114,-31.98225 -47.10903,-50.65246 -70.35239,-76.36499 -64.52147,-71.03762 -59.39341,-66.1502 -75.21597,-83.20142 -27.36986,-31.97243 -45.69864,-56.00762 -72.073,-86.45093 -11.85557,-14.1816 -15.26641,-10.17535 13.51997,-36.36403 78.3662,-81.07156 167.88013,-173.45997 230.32759,-232.96293 z" style="fill:#009f6d;fill-opacity:1;stroke-width:20.41384506;stroke-miterlimit:4;stroke-dasharray:none"></path>
                </g>
              </g>
              <g id="g838" transform="translate(-123.47338,210.3428)">
                <path style="fill:#ECEDEE;stroke-width:3.8780663;stroke-miterlimit:4;stroke-dasharray:none" d="m 1193.2398,1009.1104 c -1.3836,0 -2.8797,0.2024 -4.4822,0.6361 3.6218,15.8485 -1.9794,22.1811 -11.0973,36.9145 -18.1236,23.7926 -39.0369,44.6271 -62.1637,62.2115 -4.8206,2.1884 -3.5517,-1.35 -2.3899,-2.8022 2.329,-2.9112 16.8096,-16.5559 1.5154,-7.7747 -0.2262,-4.8043 6.5178,-12.8282 9.9146,-15.998 5.4249,-5.1866 11.0768,-9.645 21.4207,-10.6797 4.9623,-0.4017 9.5026,-9.6304 9.5026,-9.6304 -13.9911,-2.1389 -25.3654,2.4953 -35.8228,8.6065 -12.5446,9.4079 -22.1456,23.8216 -25.8551,36.6648 -11.7612,7.0605 -23.5855,14.5918 -37.0405,14.0229 -9.4683,0.234 -16.3558,-6.7042 -12.848,-11.7333 9.2361,-6.5008 16.6682,-9.3486 27.7068,-16.6744 2.4681,-2.0628 13.1094,-10.2296 16.6473,-14.9588 23.7692,-26.6362 -17.9139,-22.4672 -33.49,-7.1413 -15.51,14.3656 -20.3532,26.3526 -23.4781,37.9843 -4.8356,4.1821 -7.7839,5.9327 -12.2802,9.5687 -19.60997,16.747 2.8709,4.5765 5.848,2.8893 2.2825,-1.2936 7.7,-4.9076 7.8705,-3.8339 12.3867,20.6039 40.5397,11.2513 54.7312,2.1739 4.1429,-2.5286 3.728,-2.3286 6.5587,-3.5342 1.3918,-0.5929 0.4703,2.5129 3.6074,4.7283 11.736,7.7597 20.3085,-1.1807 42.2237,-19.1325 26.855,-25.1468 14.788,-15.9303 8.6709,0.556 -15.3782,40.8177 -14.7979,42.8815 -13.6992,50.075 23.5118,-48.1038 47.1247,-80.0212 66.2077,-114.6413 9.3524,-15.9993 5.5965,-28.5083 -7.7785,-28.497 z m -601.66761,5.0067 c -1.3614,0.043 -2.80833,0.3891 -4.3502,1.155 7.48282,23.0509 -6.13926,47.871 -19.92868,66.5827 -6.28343,11.117 -14.7228,21.9872 -20.68528,32.7875 -10.32907,15.1092 -16.31531,36.2328 4.56992,44.3317 11.93394,1.5019 23.13066,-13.1502 29.51004,-18.7458 28.09496,-26.6908 50.55864,-53.454 78.8593,-79.7003 -15.47649,23.0429 -21.79945,38.2124 -25.61834,72.7833 -0.95392,10.3043 3.56941,23.968 18.68338,26.2061 10.12784,0.4836 23.2952,-6.8096 31.01546,-12.4423 10.37291,-8.9341 5.6872,-6.7462 3.53153,-5.8103 -38.2371,16.6002 -38.33496,4.7226 -37.8756,-13.5452 4.72455,-46.4807 25.42835,-70.6845 42.28001,-91.1132 l 3.9615,-4.8024 c 0.83899,-1.017 2.66965,-2.9759 1.50637,-4.135 -3.93173,-2.7243 -8.17846,-6.484 -12.498,-8.4843 0,0 -2.65757,-2.0431 -3.78303,-0.8195 l -9.82041,11.8655 c -27.05175,32.1386 -60.14609,62.2533 -86.01412,89.107 -5.18372,3.6582 -18.90789,18.5207 -20.44535,11.0498 -1.41263,-7.8709 26.21039,-45.603 34.00938,-57.5663 11.40472,-20.6222 11.93831,-23.3989 14.67207,-38.5302 0.0843,-9.5772 -15.06155,-20.1534 -21.57993,-20.174 z m 455.32471,24.0778 c -2.5089,-0.015 -3.7938,-0.5261 -5.5094,0.014 -1.5059,0.4741 -1.1346,2.5443 -2.2666,6.5865 -10.8847,24.3206 -24.4165,43.2006 -34.2936,57.4331 9.1225,-21.0027 12.015,-25.2485 12.4685,-33.3293 0,0 0.1588,-10.0451 -17.1185,-6.9281 7.6628,15.9988 -4.71153,23.8773 -16.9615,35.505 -11.98157,9.9479 -30.71108,27.0245 -43.75457,20.1412 -1.8845,-0.9945 -1.30327,-3.8893 0.0397,-7.4163 2.70281,-2.5245 6.17959,-5.0703 8.67414,-6.5491 6.2354,-4.2173 41.44804,-24.3273 30.85587,-39.5831 -13.2049,-11.8622 -34.91452,9.0996 -44.0799,21.977 -4.9838,6.7669 -6.7551,12.6667 -8.44421,20.3772 -6.06136,3.631 -7.39267,4.3971 -15.06631,10.2562 -12.31992,9.4067 5.90954,-0.3892 14.79827,-2.4958 0.34123,2.4581 -0.62957,3.7082 2.01414,8.4006 10.83803,18.5528 46.80838,-7.767 64.12789,-20.2632 1.64329,6.9985 -5.84956,25.0523 -7.00425,35.858 3.04195,1.0967 6.89617,-4.474 9.55646,-7.1437 14.64367,-18.1906 22.48537,-28.7419 35.61907,-48.7028 11.9813,-22.1217 4.6835,8.0303 12.2351,-10.9856 3.4351,-6.91 7.7926,-15.5166 12.7934,-24.2154 2.1595,-3.8974 2.2565,-4.1081 2.2966,-6.0535 0.018,-0.8803 -2.0593,-0.7246 -3.1637,-1.1473 -2.4204,-0.9265 -5.3404,-1.721 -7.8166,-1.7357 z m -108.20968,17.5266 c -5.15354,0.9888 -18.19986,16.9987 -28.94305,33.2611 -8.1746,10.3474 -16.88914,26.216 -17.35034,19.8175 -0.26813,-12.8899 8.87775,-40.7923 0.93838,-46.4661 -18.41372,-9.2128 -10.46557,4.6392 -9.22508,15.9691 -1.71669,19.5241 -7.53805,38.3152 -2.0345,58.4995 7.5306,-6.2912 6.00258,-3.4346 16.69061,-16.3058 15.16646,-21.0844 9.15921,-12.2922 25.53224,-34.6352 18.66406,-23.8863 18.45457,-21.5894 25.07436,-28.1118 -2.64399,-2.6079 -8.27539,-2.1089 -10.68262,-2.0283 z m -129.51728,-1.2882 c -7.49884,-3.1622 -8.1908,15.111 -14.43786,11.46 -16.85794,-2.7248 -28.83527,16.724 -33.45701,27.826 -4.87124,12.1808 -6.83904,36.1237 12.14644,37.9699 18.27947,-0.1594 30.98834,-13.4538 45.22881,-23.393 -3.27213,24.1946 23.09768,25.2904 40.28746,5.5335 10.44222,-12.0016 20.6689,-32.4244 18.13643,-46.0578 -0.78858,-4.2452 -5.38092,-7.3222 -9.81906,-10.3387 -1.86527,3.8525 3.85347,17.1742 -6.87335,37.1928 -4.68754,10.4999 -14.68123,19.6526 -20.81949,21.1586 -5.27812,0.8983 -10.32306,1.282 -10.79887,-6.3857 1.34611,-11.5917 3.11876,-16.84 8.94921,-24.3474 14.34362,-15.0599 16.22056,-11.1747 24.2773,-17.9643 -11.25208,-16.1053 -35.00279,13.7601 -36.96119,18.0995 -2.86347,4.3852 -4.48276,9.7422 -5.17727,12.4545 -11.78003,8.9495 -30.04999,18.9397 -37.12807,21.7465 -13.60864,4.4746 -11.93419,-5.4566 -8.67574,-14.5639 5.96543,-13.3894 9.87347,-26.2173 25.41752,-30.1366 -0.63104,11.942 1.13304,15.1981 7.25345,2.1779 0.86703,-11.1846 13.74805,-15.9298 7.14557,-20.9049 -1.95115,-1.0155 -3.48362,-1.4794 -4.69428,-1.5269 z m -105.82217,8.7155 c -3.91632,-0.1213 -7.94649,3.3397 -5.11581,10.1169 1.70483,18.9245 -14.15496,42.8813 -10.7118,60.7845 56.62533,-49.3727 43.98509,-48.4145 35.94011,2.4142 -1.37308,8.7169 5.33518,-3.1646 6.80258,-6.3844 6.45342,-13.2275 9.60147,-19.1334 16.63261,-32.3433 0.93344,-3.3648 4.47838,-10.0105 5.12211,-15.3594 -11.44608,-19.9895 -31.43771,7.6691 -42.2611,17.4373 -7.35485,2.8266 16.70152,-25.3945 9.1081,-29.5065 -0.79184,-2.81 -9.79294,-6.9821 -15.5168,-7.1593 z m 354.39833,27.6092 c -13.1947,5.9402 2.8097,-14.6038 17.6769,-20.232 13.7849,-2.3528 -8.056,14.3135 -17.6769,20.232 z m -90.36709,-18.9023 c 3.12606,0.197 -1.49474,9.4883 -21.41241,20.8456 -3.39379,-0.1071 3.31806,-7.9691 10.52717,-15.2865 5.35184,-5.405 10.31825,-5.53 10.88524,-5.5591 z" id="path4147"></path>
              </g>
            </g>
          </g>
        </g>
      </g>
    </g>
  </g>
</svg>