<svg xmlns="http://www.w3.org/2000/svg" viewBox="51.5 96.2 75.4 78" width="75.4" height="78" role="img" aria-label="Uncovered"><path fill="#009f6d" d="m 90.609419,100.22799 c -0.46157,0.41209 -0.42381,-0.12138 -1.17503,0.28744 -4.61243,4.70858 -22.30462,23.49187 -33.34034,33.41653 -0.98609,1.14412 -0.98272,1.31124 2.16173,4.92477 10.33188,12.30242 17.97492,20.64204 27.48113,31.08166 0.82541,0.58379 0.66767,-0.16969 1.27859,0.28227 0.25362,0.1306 3.7037,-3.20102 5.7545,-4.95389 5.06193,-5.19776 8.030671,-7.62086 12.608991,-12.16249 2.18516,-2.32898 5.606,-5.57034 4.68969,-4.6736 4.97044,-5.1017 6.96052,-7.07408 12.82194,-13.41204 -4.63673,-4.99014 -10.31705,-10.47662 -14.91842,-15.72549 -1.09025,-1.04013 -1.0174,-0.79577 -0.70247,-1.2283 0.71222,-0.76547 0.61069,-0.59804 0.86713,-0.91701 -0.79799,-0.86353 -1.9427,-2.25133 -2.78274,-3.04116 -0.85269,0.6972 -0.75484,0.79802 -1.14296,1.05758 -6.425441,-6.81116 -7.866911,-8.56513 -13.601741,-14.93627 z m -0.46009,4.39231 c 3.45396,4.3689 6.87464,7.51125 10.178461,11.18405 1.94621,2.0792 1.76442,1.57732 1.56171,2.04673 -1.920071,2.64295 -3.802081,4.83807 -5.183061,6.40639 -1.78586,2.03963 -14.98171,16.85396 -17.82179,18.95999 -1.13053,0.32176 -0.29283,-1.23397 0.4104,-2.33839 1.40971,-2.25224 4.31156,-7.53638 5.72486,-10.52778 3.74595,-8.30832 2.95476,-10.22137 3.717,-11.10732 -0.25717,-1.83857 -5.78086,-4.29003 -6.78239,-3.53091 1.20277,2.56512 0.65973,6.41934 -0.12107,9.38436 -0.62592,2.77964 -2.4195,5.61879 -3.56422,7.65883 -0.80692,1.61915 -2.3226,3.86903 -2.7791,4.9866 -1.31715,2.37997 -3.21607,4.97084 -3.04011,7.74102 0.65907,3.55564 4.37829,4.97934 7.29876,2.0431 3.65868,-3.91368 5.7379,-6.25275 9.52967,-10.74256 5.91971,-6.78411 8.46611,-9.73498 9.94049,-11.33649 -4.12028,6.96996 -5.96049,12.90478 -3.82832,19.01541 3.0422,5.52898 9.882121,1.49766 14.050061,-2.26615 1.38994,-1.16793 -1.71536,0.0106 -2.35718,0.46705 -7.973551,3.70421 -8.645941,0.83649 -9.156791,-1.61966 -1.20029,-5.77094 2.655341,-13.18572 7.351241,-20.09369 3.83094,4.06501 1.55263,1.61073 4.33761,4.62235 2.05717,2.28639 6.44602,6.45399 8.5153,8.86874 0.80126,0.70565 0.0203,0.81604 -0.43115,1.55287 -8.64636,9.11543 -15.16688,15.13814 -25.561061,25.20629 -1.50011,1.40527 -3.46229,3.31976 -5.11339,4.8538 -3.5896,-3.81263 -5.6159,-6.03832 -8.38676,-9.10353 -7.69166,-8.46846 -7.08034,-7.88583 -8.96656,-9.91852 -3.26279,-3.81146 -5.44778,-6.67671 -8.59189,-10.30589 -1.41331,-1.6906 -1.81992,-1.21301 1.61173,-4.33498 9.3421,-9.66461 20.01313,-20.67831 27.45755,-27.77171 z"></path></svg>